<svg width="699" height="360" viewBox="0 0 699 360" fill="none" xmlns="http://www.w3.org/2000/svg">
<path d="M80 107C90.3134 105.895 100.538 102.743 110.333 99.5555C152.465 85.8478 193.465 68.2851 233.556 49.5C255.909 39.026 278.364 28.2287 299.889 16.1111C304.853 13.3167 309.353 9.77206 314.333 7.05555C315.909 6.19609 314.448 4.10102 311.444 8.22222C299.322 24.8546 289.095 42.991 277.778 60.1667C250.514 101.545 222.937 142.671 196.444 184.556C165.887 232.867 136.687 283.223 98.2778 325.944C89.2055 336.035 77.0651 349.904 63.6111 354.389C57.0768 356.567 58.9017 350.249 59 345.333C59.439 323.382 70.0262 300.58 82.8889 283.111C112.255 243.229 170.024 240.855 207.722 211.056C222.615 199.284 235.831 185.603 249 172C255.014 165.788 260.39 158.435 263.222 150.222C265.626 143.251 247.352 156.32 246.944 156.667C229.17 171.802 209.305 190.658 198.278 211.611C194.864 218.098 200.158 217.362 205.222 217C210.295 216.638 216.233 210.408 219.889 207.5C229.765 199.644 237.752 189.117 245.611 179.333C259.965 161.464 277.334 145.111 293.556 128.889C295.228 127.216 298.276 124.858 295.222 128.889C285.555 141.649 276.863 155.874 268.167 169.333C264.4 175.163 260.933 181.067 256 186C251.263 190.737 256.699 185.342 258.667 183.333C276.659 164.974 293.806 141.908 317.5 130.5C320.348 129.129 323.643 126.605 327 127C331.356 127.512 325.207 142.369 324.222 144.222C322.879 146.748 319.809 150.92 319.056 153.556C318.452 155.667 322.461 150.023 323.222 149.333C337.37 136.512 349.134 118.722 368.167 112.5C374.841 110.318 381.443 107.791 388.556 108C392.372 108.112 386.433 115.086 385.778 116.222C382.643 121.656 378.694 126.672 376.056 132.389C374.735 135.251 378.772 134.002 380.611 133.389C405.329 125.149 425.32 103.589 442.556 85.1111C449.403 77.7696 457 70.7352 462.889 62.5555C464.141 60.8165 467.926 57.6829 464.944 58.0555C452.116 59.6591 438.735 71.746 432 82.2222C429.276 86.4598 426.775 95.229 431.5 98.5C444.995 107.843 462.952 94.0191 473.444 86.3333C493.9 71.35 516.468 56.2891 530.944 35C531.47 34.2267 540.288 21.6857 539.778 21.2222C538.4 19.9694 531.929 21.0067 530.389 21.1111C523.588 21.5722 518.15 24.4334 512.222 27.5556C508.409 29.5643 499.116 32.9898 497.111 37.5C495.068 42.096 505.71 42.5718 507.778 43.1111C525.351 47.6955 543.312 50.2789 560.889 54.7778C561.487 54.9308 577.045 57.6559 573.556 61C570.531 63.8981 566.167 66.2877 562.667 68.4444C546.294 78.5328 528.201 85.9654 510.667 93.7222C442.836 123.728 373.154 150.035 303.111 174.389C229.618 199.942 155.43 223.472 82.4444 250.444C58.13 259.43 -13.9172 288.724 10.2222 279.278C17.9839 276.241 26.5469 274.576 34.5555 272.444C97.1913 255.777 158.324 233.921 219.889 213.778C349.842 171.259 482.333 129.059 617.778 107.889C636.037 105.035 654.629 102.836 673.111 102.111C677.997 101.92 682.718 101.926 687.556 101.222C689.91 100.88 692.838 101.324 694 99" stroke="#4C4C60" stroke-width="15" stroke-linecap="round"/>
</svg>
